<svg width="660" height="134" viewBox="0 0 660 134" fill="none" xmlns="http://www.w3.org/2000/svg">
<g clip-path="url(#clip0_2911_293)">
<path d="M607.5 131.76H567.5C567.5 131.76 580 125 584 115C590 115 611.09 115 611.09 115L627.09 43.5C627.09 43.5 604.5 43.5 601.5 43.5C604 33.5 603 26 603 26C622.98 22.22 636.38 15 640.5 4H659.5L636.5 115H654.5L650.5 131.76H630.18H607.5Z" fill="#F8FAFC"/>
<path d="M477.84 133.96H408L436.8 4H504.84L499.98 25.96H456.78L450.12 55.84H483.06L478.2 77.8H445.26L437.7 112H482.7L477.84 133.96Z" fill="#F8FAFC"/>
<path d="M388.641 131.76L387.201 120.96C378.921 128.52 370.641 133.56 361.281 133.56C337.161 133.56 322.761 122.04 329.781 90L340.221 43.56C347.241 11.52 366.681 0 390.801 0C416.181 0 426.621 14.58 421.041 44.1H396.201C399.981 27.36 394.941 21.96 385.941 21.96C376.041 21.96 368.841 25.92 365.781 40.32L353.901 93.24C350.841 107.64 356.241 111.6 366.141 111.6C375.501 111.6 382.701 104.76 385.221 93.6L387.021 85.68H369.561L374.061 65.16H416.361L401.601 131.76H388.641Z" fill="#F8FAFC"/>
<path d="M242.96 133.96H216.32L206.42 81.04H194.54L182.84 133.96H158L186.8 4H222.8C252.68 4 263.66 18.4 258.26 42.88C254.66 59.08 246.38 70.78 231.26 76L242.96 133.96ZM207.14 24.52L199.04 60.52H211.82C222.8 60.52 230.72 55.12 233.6 42.52C236.3 29.92 230.9 24.52 219.92 24.52H207.14Z" fill="#F8FAFC"/>
<path d="M134.5 26L116.5 84.5H134.5V26ZM100.5 134H75.5L122.5 4H155.5V133.46H134.5V106.1H109.5L100.5 134Z" fill="#F8FAFC"/>
<path d="M304 26L286 84.5H304V26ZM270 134H245L292 4H325V133.46H304V106.1H279L270 134Z" fill="#F8FAFC"/>
<path d="M54.5 134L59.2008 120.96C50.9208 128.52 42.6408 133.56 33.2808 133.56C9.16079 133.56 -5.23921 122.04 1.78079 90L12.2208 43.56C19.2408 11.52 38.6808 0 62.8008 0C88.1808 0 98.6208 14.58 93.0408 44.1H68.2008C71.9808 27.36 66.9408 21.96 57.9408 21.96C48.0408 21.96 40.8408 25.92 37.7808 40.32L25.9008 93.24C22.8408 107.64 28.2408 111.6 38.1408 111.6C47.5008 111.6 54.7008 104.76 57.2208 93.6L59.0208 85.68H41.5608L46.0608 65.16H89.5L72.5 134H54.5Z" fill="#F8FAFC"/>
<path d="M570.201 120.96C559.902 131.92 544.641 133.56 535.281 133.56C511.161 133.56 496.761 122.04 503.781 90L514.221 43.56C521.241 11.52 540.681 0 564.801 0C590.181 0 600.621 13.98 595.041 43.5H570.201C573.981 26.76 568.941 21.96 559.941 21.96C550.041 21.96 542.841 25.92 539.781 40.32L527.901 93.24C524.841 107.64 530.241 111.6 540.141 111.6C549.501 111.6 556.701 104.76 559.221 93.6C565.49 65.8384 539.781 72.5 521 85.68C521 85.68 519.996 73.313 526 67.5C535.812 58 548 55.0072 564.801 58C580 60.7075 586.073 71.699 584.5 83.5C582.5 98.5 576.703 114.041 570.201 120.96Z" fill="#F8FAFC"/>
</g>
<defs>
<clipPath id="clip0_2911_293">
<rect width="660" height="134" fill="white"/>
</clipPath>
</defs>
</svg>
