<svg width="660" height="134" viewBox="0 0 660 134" fill="none" xmlns="http://www.w3.org/2000/svg">
<g clip-path="url(#clip0_2911_293)">
<path d="M607.5 131.76H567.5C567.5 131.76 580 125 584 115C590 115 611.09 115 611.09 115L627.09 43.5C627.09 43.5 604.5 43.5 601.5 43.5C604 33.5 603 26 603 26C622.98 22.22 636.38 15 640.5 4H659.5L636.5 115H654.5L650.5 131.76H630.18H607.5Z" fill="#F8FAFC"/>
<path d="M473.84 131.76H404L432.8 1.7998H500.84L495.98 23.7598H452.78L446.12 53.6398H479.06L474.2 75.5998H441.26L433.7 109.8H478.7L473.84 131.76Z" fill="#F8FAFC"/>
<path d="M384.641 131.76L383.201 120.96C374.921 128.52 366.641 133.56 357.281 133.56C333.161 133.56 318.761 122.04 325.781 90L336.221 43.56C343.241 11.52 362.681 0 386.801 0C412.181 0 422.621 14.58 417.041 44.1H392.201C395.981 27.36 390.941 21.96 381.941 21.96C372.041 21.96 364.841 25.92 361.781 40.32L349.901 93.24C346.841 107.64 352.241 111.6 362.141 111.6C371.501 111.6 378.701 104.76 381.221 93.6L383.021 85.68H365.561L370.061 65.16H412.361L397.601 131.76H384.641Z" fill="#F8FAFC"/>
<path d="M242.96 131.76H216.32L206.42 78.8398H194.54L182.84 131.76H158L186.8 1.7998H222.8C252.68 1.7998 263.66 16.1998 258.26 40.6798C254.66 56.8798 246.38 68.5798 231.26 73.7998L242.96 131.76ZM207.14 22.3198L199.04 58.3198H211.82C222.8 58.3198 230.72 52.9198 233.6 40.3198C236.3 27.7198 230.9 22.3198 219.92 22.3198H207.14Z" fill="#F8FAFC"/>
<path d="M133.5 31.36L116.5 82.5H133.5V31.36ZM99.5 132H77.5L126.5 2.5L153.7 2V131.46H133.5V104.1H108.5L99.5 132Z" fill="#F8FAFC"/>
<path d="M300 31.36L283 82.5H300V31.36ZM266 132H244L293 2.5L320.2 2V131.46H300V104.1H275L266 132Z" fill="#F8FAFC"/>
<path d="M55.5 132L59.2008 120.96C50.9208 128.52 42.6408 133.56 33.2808 133.56C9.16079 133.56 -5.23921 122.04 1.78079 90L12.2208 43.56C19.2408 11.52 38.6808 0 62.8008 0C88.1808 0 98.6208 14.58 93.0408 44.1H68.2008C71.9808 27.36 66.9408 21.96 57.9408 21.96C48.0408 21.96 40.8408 25.92 37.7808 40.32L25.9008 93.24C22.8408 107.64 28.2408 111.6 38.1408 111.6C47.5008 111.6 54.7008 104.76 57.2208 93.6L59.0208 85.68H41.5608L46.0608 65.16H88.3608L73.5 132H55.5Z" fill="#F8FAFC"/>
<path d="M570.201 120.96C559.902 131.92 544.641 133.56 535.281 133.56C511.161 133.56 496.761 122.04 503.781 90L514.221 43.56C521.241 11.52 540.681 0 564.801 0C590.181 0 600.621 13.98 595.041 43.5H570.201C573.981 26.76 568.941 21.96 559.941 21.96C550.041 21.96 542.841 25.92 539.781 40.32L527.901 93.24C524.841 107.64 530.241 111.6 540.141 111.6C549.501 111.6 556.701 104.76 559.221 93.6C565.49 65.8384 539.781 72.5 521 85.68C521 85.68 519.996 73.313 526 67.5C535.812 58 548 55.0072 564.801 58C580 60.7075 586.073 71.699 584.5 83.5C582.5 98.5 576.703 114.041 570.201 120.96Z" fill="#F8FAFC"/>
</g>
<defs>
<clipPath id="clip0_2911_293">
<rect width="660" height="134" fill="white"/>
</clipPath>
</defs>
</svg>
