<svg width="246" height="134" viewBox="0 0 246 134" fill="none" xmlns="http://www.w3.org/2000/svg">
<g clip-path="url(#clip0_2912_250)">
<path d="M193.5 131.76H153.5C153.5 131.76 166 125 170 115C176 115 197.09 115 197.09 115L213.09 43.5C213.09 43.5 190.5 43.5 187.5 43.5C190 33.5 189 26 189 26C208.98 22.22 222.38 15 226.5 4H245.5L222.5 115H240.5L236.5 131.76H216.18H193.5Z" fill="#F8FAFC"/>
<path d="M54.5 134L59.2008 120.96C50.9208 128.52 42.6408 133.56 33.2808 133.56C9.16079 133.56 -5.23921 122.04 1.78079 90L12.2208 43.56C19.2408 11.52 38.6808 0 62.8008 0C88.1808 0 98.6208 14.58 93.0408 44.1H68.2008C71.9808 27.36 66.9408 21.96 57.9408 21.96C48.0408 21.96 40.8408 25.92 37.7808 40.32L25.9008 93.24C22.8408 107.64 28.2408 111.6 38.1408 111.6C47.5008 111.6 54.7008 104.76 57.2208 93.6L59.0208 85.68H41.5608L46.0608 65.16H89.5L72.5 134H54.5Z" fill="#F8FAFC"/>
<path d="M156.201 120.96C145.902 131.92 130.641 133.56 121.281 133.56C97.1608 133.56 82.7608 122.04 89.7808 90L100.221 43.56C107.241 11.52 126.681 0 150.801 0C176.181 0 186.621 13.98 181.041 43.5H156.201C159.981 26.76 154.941 21.96 145.941 21.96C136.041 21.96 128.841 25.92 125.781 40.32L113.901 93.24C110.841 107.64 116.241 111.6 126.141 111.6C135.501 111.6 142.701 104.76 145.221 93.6C151.49 65.8384 125.781 72.5 107 85.68C107 85.68 105.996 73.313 112 67.5C121.812 58 134 55.0072 150.801 58C166 60.7075 172.073 71.699 170.5 83.5C168.5 98.5 162.703 114.041 156.201 120.96Z" fill="#F8FAFC"/>
</g>
<defs>
<clipPath id="clip0_2912_250">
<rect width="246" height="134" fill="white"/>
</clipPath>
</defs>
</svg>
