<svg width="676" height="134" viewBox="0 0 676 134" fill="none" xmlns="http://www.w3.org/2000/svg">
<g clip-path="url(#clip0_2911_293)">
<path d="M623.5 131.76H583.5C583.5 131.76 596 125 600 115C606 115 627.09 115 627.09 115L643.09 43.5C643.09 43.5 620.5 43.5 617.5 43.5C620 33.5 619 26 619 26C638.98 22.22 652.38 15 656.5 4H675.5L652.5 115H670.5L666.5 131.76H646.18H623.5Z" fill="#F8FAFC"/>
<path d="M490.84 133.96H421L449.8 4H517.84L512.98 25.96H469.78L463.12 55.84H496.06L491.2 77.8H458.26L450.7 112H495.7L490.84 133.96Z" fill="#F8FAFC"/>
<path d="M401.641 131.76L400.201 120.96C391.921 128.52 383.641 133.56 374.281 133.56C350.161 133.56 335.761 122.04 342.781 90L353.221 43.56C360.241 11.52 379.681 0 403.801 0C429.181 0 439.621 14.58 434.041 44.1H409.201C412.981 27.36 407.941 21.96 398.941 21.96C389.041 21.96 381.841 25.92 378.781 40.32L366.901 93.24C363.841 107.64 369.241 111.6 379.141 111.6C388.501 111.6 395.701 104.76 398.221 93.6L400.021 85.68H382.561L387.061 65.16H429.361L414.601 131.76H401.641Z" fill="#F8FAFC"/>
<path d="M248.96 133.96H222.32L212.42 81.04H200.54L188.84 133.96H164L192.8 4H228.8C258.68 4 269.66 18.4 264.26 42.88C260.66 59.08 252.38 70.78 237.26 76L248.96 133.96ZM213.14 24.52L205.04 60.52H217.82C228.8 60.52 236.72 55.12 239.6 42.52C242.3 29.92 236.9 24.52 225.92 24.52H213.14Z" fill="#F8FAFC"/>
<path d="M139.5 26L116.5 84.5H139.5V26ZM100.5 134H75.5L126 4H160.5V133.46H139.5V106.1H109.5L100.5 134Z" fill="#F8FAFC"/>
<path d="M316 26L293 84.5H316V26ZM277 134H252L302.5 4H337V133.46H316V106.1H286L277 134Z" fill="#F8FAFC"/>
<path d="M54.5 134L59.2008 120.96C50.9208 128.52 42.6408 133.56 33.2808 133.56C9.16079 133.56 -5.23921 122.04 1.78079 90L12.2208 43.56C19.2408 11.52 38.6808 0 62.8008 0C88.1808 0 98.6208 14.58 93.0408 44.1H68.2008C71.9808 27.36 66.9408 21.96 57.9408 21.96C48.0408 21.96 40.8408 25.92 37.7808 40.32L25.9008 93.24C22.8408 107.64 28.2408 111.6 38.1408 111.6C47.5008 111.6 54.7008 104.76 57.2208 93.6L59.0208 85.68H41.5608L46.0608 65.16H89.5L72.5 134H54.5Z" fill="#F8FAFC"/>
<path d="M586.201 120.96C575.902 131.92 560.641 133.56 551.281 133.56C527.161 133.56 512.761 122.04 519.781 90L530.221 43.56C537.241 11.52 556.681 0 580.801 0C606.181 0 616.621 13.98 611.041 43.5H586.201C589.981 26.76 584.941 21.96 575.941 21.96C566.041 21.96 558.841 25.92 555.781 40.32L543.901 93.24C540.841 107.64 546.241 111.6 556.141 111.6C565.501 111.6 572.701 104.76 575.221 93.6C581.49 65.8384 555.781 72.5 537 85.68C537 85.68 535.996 73.313 542 67.5C551.812 58 564 55.0072 580.801 58C596 60.7075 602.073 71.699 600.5 83.5C598.5 98.5 592.703 114.041 586.201 120.96Z" fill="#F8FAFC"/>
</g>
<defs>
<clipPath id="clip0_2911_293">
<rect width="676" height="134" fill="white"/>
</clipPath>
</defs>
</svg>
