<svg width="631" height="134" viewBox="0 0 631 134" fill="none" xmlns="http://www.w3.org/2000/svg">
<g clip-path="url(#clip0_2911_294)">
<path d="M578.5 131.76H544C544 131.76 558 125 562 115C568 115 582.09 115 582.09 115L598.09 43.5C598.09 43.5 584.5 43.5 581.5 43.5C584 33.5 582.5 24 582.5 24C602.48 20.22 607.38 15 611.5 4H630.5L607.5 115H618.5L614.5 131.76H601.18H578.5Z" fill="#020817"/>
<path d="M452.84 131.76H383L411.8 1.7998H479.84L474.98 23.7598H431.78L425.12 53.6398H458.06L453.2 75.5998H420.26L412.7 109.8H457.7L452.84 131.76Z" fill="#020817"/>
<path d="M361.641 131.76L360.201 120.96C351.921 128.52 343.641 133.56 334.281 133.56C310.161 133.56 295.761 122.04 302.781 90L313.221 43.56C320.241 11.52 339.681 0 363.801 0C389.181 0 399.621 14.58 394.041 44.1H369.201C372.981 27.36 367.941 21.96 358.941 21.96C349.041 21.96 341.841 25.92 338.781 40.32L326.901 93.24C323.841 107.64 329.241 111.6 339.141 111.6C348.501 111.6 355.701 104.76 358.221 93.6L360.021 85.68H342.561L347.061 65.16H389.361L374.601 131.76H361.641Z" fill="#020817"/>
<path d="M291 29.58L259.5 82.14H276.5L291 29.58ZM233.5 131.46H207L283.5 2L315.7 1.5L287.2 131.46H267.5L273.56 104.1H250.5L233.5 131.46Z" fill="#020817"/>
<path d="M232.96 131.76H206.32L196.42 78.8398H184.54L172.84 131.76H148L176.8 1.7998H212.8C242.68 1.7998 253.66 16.1998 248.26 40.6798C244.66 56.8798 236.38 68.5798 221.26 73.7998L232.96 131.76ZM197.14 22.3198L189.04 58.3198H201.82C212.8 58.3198 220.72 52.9198 223.6 40.3198C226.3 27.7198 220.9 22.3198 209.92 22.3198H197.14Z" fill="#020817"/>
<path d="M145 29.58L113.5 82.14H130.5L145 29.58ZM87.5 131.46H61L137 2.5L169.7 2L141.2 131.46H121.5L127.56 104.1H104.5L87.5 131.46Z" fill="#020817"/>
<path d="M60.6408 131.76L59.2008 120.96C50.9208 128.52 42.6408 133.56 33.2808 133.56C9.16079 133.56 -5.23921 122.04 1.78079 90L12.2208 43.56C19.2408 11.52 38.6808 0 62.8008 0C88.1808 0 98.6208 14.58 93.0408 44.1H68.2008C71.9808 27.36 66.9408 21.96 57.9408 21.96C48.0408 21.96 40.8408 25.92 37.7808 40.32L25.9008 93.24C22.8408 107.64 28.2408 111.6 38.1408 111.6C47.5008 111.6 54.7008 104.76 57.2208 93.6L59.0208 85.68H41.5608L46.0608 65.16H88.3608L73.6008 131.76H60.6408Z" fill="#020817"/>
<path d="M550.201 120.96C539.902 131.92 524.641 133.56 515.281 133.56C491.161 133.56 476.761 122.04 483.781 90L494.221 43.56C501.241 11.52 520.681 0 544.801 0C570.181 0 580.621 13.98 575.041 43.5H550.201C553.981 26.76 548.941 21.96 539.941 21.96C530.041 21.96 522.841 25.92 519.781 40.32L507.901 93.24C504.841 107.64 510.241 111.6 520.141 111.6C529.501 111.6 536.701 104.76 539.221 93.6C545.49 65.8384 519.781 72.5 501 85.68C501 85.68 499.996 73.313 506 67.5C515.812 58 528 55.0072 544.801 58C560 60.7075 566.073 71.699 564.5 83.5C562.5 98.5 556.703 114.041 550.201 120.96Z" fill="#020817"/>
</g>
<defs>
<clipPath id="clip0_2911_294">
<rect width="631" height="134" fill="white"/>
</clipPath>
</defs>
</svg>
